<mxfile host="app.diagrams.net" agent="Mozilla/5.0 (Windows NT 10.0; Win64; x64) AppleWebKit/537.36 (KHTML, like Gecko) Chrome/136.0.0.0 Safari/537.36 Edg/136.0.0.0" version="26.2.12">
  <diagram name="Page-1" id="-eBCZYeX6XfeqS_nJR1Y">
    <mxGraphModel dx="1438" dy="713" grid="0" gridSize="10" guides="1" tooltips="1" connect="1" arrows="1" fold="1" page="0" pageScale="1" pageWidth="827" pageHeight="1169" math="0" shadow="0">
      <root>
        <mxCell id="0" />
        <mxCell id="1" parent="0" />
        <mxCell id="oF6Pcvq7hqdC3ZjHAWIR-1" value="Metadata_Configuration_Layer" style="whiteSpace=wrap;strokeWidth=2;" vertex="1" parent="1">
          <mxGeometry x="20" y="560" width="802" height="104" as="geometry" />
        </mxCell>
        <mxCell id="oF6Pcvq7hqdC3ZjHAWIR-2" value="Storage_Engine_Layer" style="whiteSpace=wrap;strokeWidth=2;" vertex="1" parent="1">
          <mxGeometry x="1112" y="714" width="427" height="104" as="geometry" />
        </mxCell>
        <mxCell id="oF6Pcvq7hqdC3ZjHAWIR-3" value="Service_Component_Layer" style="whiteSpace=wrap;strokeWidth=2;" vertex="1" parent="1">
          <mxGeometry x="842" y="302" width="778" height="362" as="geometry" />
        </mxCell>
        <mxCell id="oF6Pcvq7hqdC3ZjHAWIR-4" value="Network_Communication_Layer" style="whiteSpace=wrap;strokeWidth=2;" vertex="1" parent="1">
          <mxGeometry x="228" y="302" width="246" height="104" as="geometry" />
        </mxCell>
        <mxCell id="oF6Pcvq7hqdC3ZjHAWIR-5" value="Client_Application_Layer" style="whiteSpace=wrap;strokeWidth=2;" vertex="1" parent="1">
          <mxGeometry x="290" y="20" width="1219" height="232" as="geometry" />
        </mxCell>
        <mxCell id="oF6Pcvq7hqdC3ZjHAWIR-6" value="User_Program" style="whiteSpace=wrap;strokeWidth=2;" vertex="1" parent="1">
          <mxGeometry x="1101" y="45" width="159" height="54" as="geometry" />
        </mxCell>
        <mxCell id="oF6Pcvq7hqdC3ZjHAWIR-7" value="POSIX_Interface / librados / libcephfs / librbd" style="whiteSpace=wrap;strokeWidth=2;" vertex="1" parent="1">
          <mxGeometry x="1051" y="149" width="260" height="78" as="geometry" />
        </mxCell>
        <mxCell id="oF6Pcvq7hqdC3ZjHAWIR-8" value="Messenger_msgr" style="whiteSpace=wrap;strokeWidth=2;" vertex="1" parent="1">
          <mxGeometry x="263" y="327" width="176" height="54" as="geometry" />
        </mxCell>
        <mxCell id="oF6Pcvq7hqdC3ZjHAWIR-9" value="MON_Monitor" style="whiteSpace=wrap;strokeWidth=2;" vertex="1" parent="1">
          <mxGeometry x="877" y="456" width="155" height="54" as="geometry" />
        </mxCell>
        <mxCell id="oF6Pcvq7hqdC3ZjHAWIR-10" value="OSD_Object_Storage_Daemon" style="whiteSpace=wrap;strokeWidth=2;" vertex="1" parent="1">
          <mxGeometry x="1075" y="585" width="274" height="54" as="geometry" />
        </mxCell>
        <mxCell id="oF6Pcvq7hqdC3ZjHAWIR-11" value="MDS_Metadata_Server" style="whiteSpace=wrap;strokeWidth=2;" vertex="1" parent="1">
          <mxGeometry x="1102" y="456" width="218" height="54" as="geometry" />
        </mxCell>
        <mxCell id="oF6Pcvq7hqdC3ZjHAWIR-12" value="RGW_Rados_Gateway" style="whiteSpace=wrap;strokeWidth=2;" vertex="1" parent="1">
          <mxGeometry x="1370" y="456" width="215" height="54" as="geometry" />
        </mxCell>
        <mxCell id="oF6Pcvq7hqdC3ZjHAWIR-13" value="NFS_Ganesha_NFS" style="whiteSpace=wrap;strokeWidth=2;" vertex="1" parent="1">
          <mxGeometry x="1177" y="327" width="190" height="54" as="geometry" />
        </mxCell>
        <mxCell id="oF6Pcvq7hqdC3ZjHAWIR-14" value="BlueStore" style="whiteSpace=wrap;strokeWidth=2;" vertex="1" parent="1">
          <mxGeometry x="1147" y="739" width="129" height="54" as="geometry" />
        </mxCell>
        <mxCell id="oF6Pcvq7hqdC3ZjHAWIR-15" value="FileStore_legacy" style="whiteSpace=wrap;strokeWidth=2;" vertex="1" parent="1">
          <mxGeometry x="1326" y="739" width="178" height="54" as="geometry" />
        </mxCell>
        <mxCell id="oF6Pcvq7hqdC3ZjHAWIR-16" value="CRUSH_Map" style="whiteSpace=wrap;strokeWidth=2;" vertex="1" parent="1">
          <mxGeometry x="55" y="585" width="144" height="54" as="geometry" />
        </mxCell>
        <mxCell id="oF6Pcvq7hqdC3ZjHAWIR-17" value="OSDMap" style="whiteSpace=wrap;strokeWidth=2;" vertex="1" parent="1">
          <mxGeometry x="249" y="585" width="117" height="54" as="geometry" />
        </mxCell>
        <mxCell id="oF6Pcvq7hqdC3ZjHAWIR-18" value="PGMap" style="whiteSpace=wrap;strokeWidth=2;" vertex="1" parent="1">
          <mxGeometry x="416" y="585" width="108" height="54" as="geometry" />
        </mxCell>
        <mxCell id="oF6Pcvq7hqdC3ZjHAWIR-19" value="Paxos_State_Machine" style="whiteSpace=wrap;strokeWidth=2;" vertex="1" parent="1">
          <mxGeometry x="575" y="585" width="212" height="54" as="geometry" />
        </mxCell>
        <mxCell id="oF6Pcvq7hqdC3ZjHAWIR-20" value="" style="curved=1;startArrow=none;endArrow=block;exitX=0.5;exitY=1;entryX=0.5;entryY=0;rounded=0;" edge="1" parent="1" source="oF6Pcvq7hqdC3ZjHAWIR-6" target="oF6Pcvq7hqdC3ZjHAWIR-7">
          <mxGeometry relative="1" as="geometry">
            <Array as="points" />
          </mxGeometry>
        </mxCell>
        <mxCell id="oF6Pcvq7hqdC3ZjHAWIR-21" value="" style="curved=1;startArrow=none;endArrow=block;exitX=0;exitY=0.63;entryX=0.5;entryY=0;rounded=0;" edge="1" parent="1" source="oF6Pcvq7hqdC3ZjHAWIR-7" target="oF6Pcvq7hqdC3ZjHAWIR-8">
          <mxGeometry relative="1" as="geometry">
            <Array as="points">
              <mxPoint x="351" y="252" />
            </Array>
          </mxGeometry>
        </mxCell>
        <mxCell id="oF6Pcvq7hqdC3ZjHAWIR-22" value="" style="curved=1;startArrow=none;endArrow=block;exitX=0.38;exitY=1;entryX=0.5;entryY=0;rounded=0;" edge="1" parent="1" source="oF6Pcvq7hqdC3ZjHAWIR-8" target="oF6Pcvq7hqdC3ZjHAWIR-9">
          <mxGeometry relative="1" as="geometry">
            <Array as="points">
              <mxPoint x="309" y="406" />
              <mxPoint x="955" y="431" />
            </Array>
          </mxGeometry>
        </mxCell>
        <mxCell id="oF6Pcvq7hqdC3ZjHAWIR-23" value="" style="curved=1;startArrow=none;endArrow=block;exitX=0.62;exitY=1;entryX=0.22;entryY=0;rounded=0;" edge="1" parent="1" source="oF6Pcvq7hqdC3ZjHAWIR-8" target="oF6Pcvq7hqdC3ZjHAWIR-10">
          <mxGeometry relative="1" as="geometry">
            <Array as="points">
              <mxPoint x="392" y="406" />
              <mxPoint x="1067" y="431" />
              <mxPoint x="1067" y="560" />
            </Array>
          </mxGeometry>
        </mxCell>
        <mxCell id="oF6Pcvq7hqdC3ZjHAWIR-24" value="" style="curved=1;startArrow=none;endArrow=block;exitX=0.68;exitY=1;entryX=0.35;entryY=0;rounded=0;" edge="1" parent="1" source="oF6Pcvq7hqdC3ZjHAWIR-8" target="oF6Pcvq7hqdC3ZjHAWIR-11">
          <mxGeometry relative="1" as="geometry">
            <Array as="points">
              <mxPoint x="412" y="406" />
              <mxPoint x="1149" y="431" />
            </Array>
          </mxGeometry>
        </mxCell>
        <mxCell id="oF6Pcvq7hqdC3ZjHAWIR-25" value="" style="curved=1;startArrow=none;endArrow=block;exitX=1;exitY=0.86;entryX=0.5;entryY=0;rounded=0;" edge="1" parent="1" source="oF6Pcvq7hqdC3ZjHAWIR-7" target="oF6Pcvq7hqdC3ZjHAWIR-12">
          <mxGeometry relative="1" as="geometry">
            <Array as="points">
              <mxPoint x="1478" y="252" />
            </Array>
          </mxGeometry>
        </mxCell>
        <mxCell id="oF6Pcvq7hqdC3ZjHAWIR-26" value="" style="curved=1;startArrow=none;endArrow=block;exitX=0.71;exitY=1;entryX=0.5;entryY=0;rounded=0;" edge="1" parent="1" source="oF6Pcvq7hqdC3ZjHAWIR-7" target="oF6Pcvq7hqdC3ZjHAWIR-13">
          <mxGeometry relative="1" as="geometry">
            <Array as="points">
              <mxPoint x="1272" y="252" />
            </Array>
          </mxGeometry>
        </mxCell>
        <mxCell id="oF6Pcvq7hqdC3ZjHAWIR-27" value="" style="curved=1;startArrow=none;endArrow=block;exitX=0.31;exitY=1;entryX=1;entryY=0.4;rounded=0;" edge="1" parent="1" source="oF6Pcvq7hqdC3ZjHAWIR-9" target="oF6Pcvq7hqdC3ZjHAWIR-17">
          <mxGeometry relative="1" as="geometry">
            <Array as="points">
              <mxPoint x="899" y="535" />
              <mxPoint x="899" y="560" />
            </Array>
          </mxGeometry>
        </mxCell>
        <mxCell id="oF6Pcvq7hqdC3ZjHAWIR-28" value="" style="curved=1;startArrow=none;endArrow=block;exitX=0.38;exitY=1;entryX=1.01;entryY=0.38;rounded=0;" edge="1" parent="1" source="oF6Pcvq7hqdC3ZjHAWIR-9" target="oF6Pcvq7hqdC3ZjHAWIR-18">
          <mxGeometry relative="1" as="geometry">
            <Array as="points">
              <mxPoint x="919" y="535" />
              <mxPoint x="919" y="560" />
            </Array>
          </mxGeometry>
        </mxCell>
        <mxCell id="oF6Pcvq7hqdC3ZjHAWIR-29" value="" style="curved=1;startArrow=none;endArrow=block;exitX=0.66;exitY=1;entryX=1;entryY=0.18;rounded=0;" edge="1" parent="1" source="oF6Pcvq7hqdC3ZjHAWIR-9" target="oF6Pcvq7hqdC3ZjHAWIR-19">
          <mxGeometry relative="1" as="geometry">
            <Array as="points">
              <mxPoint x="1001" y="535" />
              <mxPoint x="1001" y="560" />
            </Array>
          </mxGeometry>
        </mxCell>
        <mxCell id="oF6Pcvq7hqdC3ZjHAWIR-30" value="" style="curved=1;startArrow=none;endArrow=block;exitX=0.5;exitY=1;entryX=0.5;entryY=0;rounded=0;" edge="1" parent="1" source="oF6Pcvq7hqdC3ZjHAWIR-10" target="oF6Pcvq7hqdC3ZjHAWIR-14">
          <mxGeometry relative="1" as="geometry">
            <Array as="points" />
          </mxGeometry>
        </mxCell>
        <mxCell id="oF6Pcvq7hqdC3ZjHAWIR-31" value="" style="curved=1;startArrow=none;endArrow=block;exitX=0.5;exitY=1;entryX=0.5;entryY=0;rounded=0;" edge="1" parent="1" source="oF6Pcvq7hqdC3ZjHAWIR-11" target="oF6Pcvq7hqdC3ZjHAWIR-10">
          <mxGeometry relative="1" as="geometry">
            <Array as="points" />
          </mxGeometry>
        </mxCell>
        <mxCell id="oF6Pcvq7hqdC3ZjHAWIR-32" value="" style="curved=1;startArrow=none;endArrow=block;exitX=0.5;exitY=1;entryX=1;entryY=0.01;rounded=0;" edge="1" parent="1" source="oF6Pcvq7hqdC3ZjHAWIR-12" target="oF6Pcvq7hqdC3ZjHAWIR-10">
          <mxGeometry relative="1" as="geometry">
            <Array as="points">
              <mxPoint x="1478" y="560" />
            </Array>
          </mxGeometry>
        </mxCell>
        <mxCell id="oF6Pcvq7hqdC3ZjHAWIR-33" value="" style="curved=1;startArrow=none;endArrow=block;exitX=0.5;exitY=1;entryX=0.65;entryY=0;rounded=0;" edge="1" parent="1" source="oF6Pcvq7hqdC3ZjHAWIR-13" target="oF6Pcvq7hqdC3ZjHAWIR-11">
          <mxGeometry relative="1" as="geometry">
            <Array as="points">
              <mxPoint x="1272" y="431" />
            </Array>
          </mxGeometry>
        </mxCell>
      </root>
    </mxGraphModel>
  </diagram>
</mxfile>
